<svg width="120" height="35" viewBox="0 0 120 35" fill="none" xmlns="http://www.w3.org/2000/svg">
<path d="M20.8483 27.752H32.3683V35H0.688268V27.752H12.2563L12.3043 11.912C8.65627 15.128 4.19227 15.128 0.688268 15.128V7.832C5.63227 7.832 12.2083 7.832 12.2083 1.4H20.8483V27.752ZM73.6171 11.48C73.6171 24.488 49.7131 21.08 47.6011 27.752H73.1371V35H35.5051V30.632C35.5051 16.664 64.9771 19.784 64.9771 12.152C64.9771 9.368 63.2011 8.168 55.7611 8.168C48.3211 8.168 44.9131 9.272 44.9131 14.6H36.2731C36.2731 3.416 44.1451 0.919998 55.2811 0.919998C66.8491 0.919998 73.6171 3.128 73.6171 11.48ZM76.802 35L92.69 20.888L76.802 6.728H87.842L98.21 16.088L108.578 6.728H119.618L103.682 20.888L119.618 35H108.578L98.21 25.64L87.842 35H76.802Z" fill="url(#paint0_linear_235_741)"/>
<defs>
<linearGradient id="paint0_linear_235_741" x1="-21.9436" y1="22.3083" x2="144.527" y2="22.3083" gradientUnits="userSpaceOnUse">
<stop stop-color="#EE2B3B"/>
<stop offset="1" stop-color="#7A030A"/>
</linearGradient>
</defs>
</svg>
