<svg width="39" height="35" viewBox="0 0 39 35" fill="none" xmlns="http://www.w3.org/2000/svg">
<path d="M24.3458 11.344C33.0338 11.344 38.1698 15.424 38.1698 22.624C38.1698 30.976 31.0658 34.48 19.8338 34.48C8.69782 34.48 0.0578159 32.272 0.0578159 22.336H8.69782C8.69782 26.128 12.6818 27.232 20.0738 27.232C27.2258 27.232 29.5298 25.072 29.5298 21.664C29.5298 18.496 27.8018 16.288 21.2258 16.288C17.9138 16.288 14.6018 16.96 8.84182 19.264L1.73782 17.872L6.05782 0.399998H35.7698V7.264H12.4898L10.3298 14.416C15.2738 12.304 18.8738 11.344 24.3458 11.344Z" fill="url(#paint0_linear_235_734)"/>
<defs>
<linearGradient id="paint0_linear_235_734" x1="-8.54934" y1="21.3083" x2="48.2943" y2="21.3083" gradientUnits="userSpaceOnUse">
<stop stop-color="#EE2B3B"/>
<stop offset="1" stop-color="#7A030A"/>
</linearGradient>
</defs>
</svg>
