<svg width="14" height="12" viewBox="0 0 14 12" fill="none" xmlns="http://www.w3.org/2000/svg">
<mask id="mask0_240_1167" style="mask-type:luminance" maskUnits="userSpaceOnUse" x="0" y="0" width="14" height="12">
<path d="M6.98518 2.31878L12.7564 5.92753L6.98518 9.53628L1.21394 5.92753L6.98518 2.31878ZM9.36953 6.32191C9.39907 6.19397 9.41461 6.06207 9.41461 5.92621C9.41461 4.78792 8.32658 3.86463 6.98518 3.86463C5.98419 3.86463 5.12464 4.37904 4.7516 5.1124C5.08112 5.05436 5.42152 5.02402 5.76969 5.02402C7.18103 5.02534 8.45869 5.5226 9.36953 6.32191ZM5.76969 5.79827C5.34691 5.79827 4.93968 5.85235 4.55576 5.95391C4.57285 7.08033 5.65312 7.98911 6.98518 7.98911C7.80898 7.98911 8.53485 7.64089 8.97473 7.10934C8.22243 6.31135 7.06601 5.79827 5.76969 5.79827ZM13.9704 5.92753C13.9704 2.6538 10.843 0 6.98518 0C3.12732 0 0 2.65512 0 5.92753C0 9.20126 3.12888 11.8551 6.98518 11.8551C10.843 11.8551 13.9704 9.19994 13.9704 5.92753Z" fill="white"/>
</mask>
<g mask="url(#mask0_240_1167)">
<path d="M13.9707 -0.00170898H-0.0012207V11.8547H13.9707V-0.00170898Z" fill="url(#paint0_linear_240_1167)"/>
</g>
<defs>
<linearGradient id="paint0_linear_240_1167" x1="7.76677" y1="11.8224" x2="6.63692" y2="-0.0115907" gradientUnits="userSpaceOnUse">
<stop stop-color="#EF2B3B"/>
<stop offset="1" stop-color="#7A030A"/>
</linearGradient>
</defs>
</svg>
