<svg width="25" height="32" viewBox="0 0 25 32" fill="none" xmlns="http://www.w3.org/2000/svg">
<g clip-path="url(#clip0_453_2)">
<path d="M12.1865 9.89438C11.944 7.22962 9.56025 5.2629 6.86478 5.50256C4.1693 5.74222 2.17992 8.09695 2.42234 10.7636C2.66476 13.4284 5.04663 15.3951 7.74403 15.1554C10.4395 14.9158 12.4289 12.561 12.1865 9.89438ZM10.553 10.0389C10.5896 10.4327 10.5472 10.8131 10.4491 11.1726L9.40441 10.7465C9.44482 10.5506 9.45828 10.3471 9.43904 10.1378C9.34862 9.15068 8.58673 8.38416 7.63821 8.2377L7.53624 7.11549C9.10427 7.22391 10.4087 8.43932 10.553 10.0389ZM7.63629 10.3376C7.65168 10.5164 7.51893 10.6742 7.33807 10.6894C7.15722 10.7047 6.99753 10.5734 6.98214 10.3946C6.96675 10.2158 7.0995 10.058 7.27843 10.0427C7.45928 10.0275 7.61897 10.1588 7.63437 10.3376H7.63629ZM6.38571 7.23723L6.48961 8.37275C5.64499 8.71702 5.08704 9.57484 5.17361 10.5202C5.19093 10.7104 5.23518 10.8911 5.29867 11.0603L4.34246 11.6671C4.19239 11.3437 4.09235 10.9919 4.05771 10.6191C3.91534 9.05938 4.92157 7.66138 6.38379 7.23723H6.38571ZM7.59973 13.5406C6.59735 13.63 5.6623 13.261 5.00238 12.6086L5.97976 11.9885C6.39533 12.3138 6.93019 12.4888 7.49969 12.4393C8.04802 12.3899 8.52709 12.1388 8.87532 11.7698L9.95467 12.2092C9.42173 12.9434 8.58288 13.4531 7.60166 13.5406H7.59973Z" fill="#D11F2A"/>
<path d="M16.217 3.59677C12.4883 3.534 11.3609 5.98193 11.2339 6.29006C11.4455 6.49168 11.6418 6.71041 11.8207 6.94246C12.167 6.76938 14.9414 5.46648 18.0293 6.21398C21.7811 7.12125 23.578 4.26438 25.0018 0C25.0018 0 21.3443 3.68236 16.2189 3.59677H16.217Z" fill="#D11F2A"/>
<path d="M17.0677 7.24114C17.0677 7.24114 14.176 6.54689 12.3521 7.77561C12.6445 8.34052 12.8407 8.96439 12.9254 9.6263C13.5526 9.51979 14.7301 9.4361 16.2231 9.86026C17.8892 10.3339 19.463 10.874 21.995 6.70667C21.9507 6.77704 21.1792 7.86881 17.0677 7.24114Z" fill="#D11F2A"/>
<path d="M15.5515 11.0718C14.2413 10.8093 13.3986 10.8416 12.9465 10.9063C12.8272 12.0513 12.3577 13.1051 11.6362 13.9515C12.2904 13.6262 13.3851 13.1716 14.3683 13.2078C15.8843 13.2648 18.3124 12.6657 19.4648 10.8759C19.4648 10.8759 18.1123 11.5853 15.5515 11.0718Z" fill="#D11F2A"/>
<path d="M17.8505 29.0328H0.178929L0.973526 30.5906L0 32H17.9814L18.7106 30.5906L17.8505 29.0328Z" fill="#D11F2A"/>
<path d="M19.0627 29.0328H18.4336L19.2455 30.5773L18.5259 32H19.1628L19.89 30.5906L19.0627 29.0328Z" fill="#D11F2A"/>
<path d="M20.1843 29.0328H19.5552L20.3671 30.5773L19.6475 32H20.2844L21.0135 30.5906L20.1843 29.0328Z" fill="#D11F2A"/>
<path d="M21.7771 29.0328H20.6362L21.4616 30.5906L20.7324 32H21.8733L22.6064 30.5906L21.7771 29.0328Z" fill="#D11F2A"/>
<path d="M18.2409 15.0147C16.0918 15.1821 14.5931 15.6005 13.4983 16.0304C12.9654 15.4617 12.1073 15.0223 10.7278 15.0052C9.90437 15.5967 8.91353 15.9829 7.82841 16.0799C6.61054 16.1883 5.44462 15.9163 4.45185 15.3647C3.41291 15.4237 2.67603 15.4503 2.21813 15.4179C2.21813 15.4179 1.84873 15.3647 1.79293 15.8554C1.79293 15.8554 0.517346 27.2962 0.334569 27.6576C0.334569 27.6576 0.107541 28.348 1.06375 28.348H4.28447C4.28447 28.348 4.86166 28.4983 5.01365 27.3875C5.16565 26.2767 6.10646 18.7998 6.10646 18.7998C6.10646 18.7998 7.68604 18.1093 8.3248 18.1683C8.96355 18.2292 9.78316 18.3186 9.66195 19.3989C9.54074 20.4793 8.65956 27.6576 8.65956 27.6576C8.65956 27.6576 8.64417 27.7375 8.66726 27.8402C8.67303 28.0456 8.78462 28.348 9.41953 28.348H12.5787C12.5787 28.348 12.5941 28.348 12.6191 28.348H12.6402C12.6402 28.348 13.2174 28.4983 13.3694 27.3875C13.456 26.756 13.7465 23.9581 13.9832 21.6567C14.1736 20.0266 14.3295 18.68 14.341 18.6191C14.3449 18.602 14.3507 18.5335 14.3545 18.4308C14.6142 18.3832 16.0995 18.1131 16.6806 18.1683C17.3193 18.2292 18.1389 18.3186 18.0177 19.3989C17.8965 20.4793 17.0153 27.6576 17.0153 27.6576C17.0153 27.6576 16.8749 28.348 18.0293 28.348H20.9325C20.9325 28.348 21.4789 28.4089 21.6309 27.4769C21.7829 26.5468 22.6641 18.7674 22.6949 18.6172C22.7257 18.4669 22.641 14.6723 18.2428 15.0128L18.2409 15.0147Z" fill="black"/>
</g>
<defs>
<clipPath id="clip0_453_2">
<rect width="25" height="32" fill="white"/>
</clipPath>
</defs>
</svg>
