<svg width="47" height="44" viewBox="0 0 47 44" fill="none" xmlns="http://www.w3.org/2000/svg">
<path fill-rule="evenodd" clip-rule="evenodd" d="M14.3871 43.2195H32.2782C40.2344 43.2195 46.6653 37.0392 46.6653 29.4811V14.4435C46.6653 6.84602 40.1932 0.705078 32.2782 0.705078H14.3871C6.43091 0.705078 0 6.88539 0 14.4435V29.4811C0 37.0786 6.47214 43.2195 14.3871 43.2195ZM32.2782 3.69688C38.4618 3.69688 43.4911 8.49944 43.4911 14.4042V29.4417C43.4911 35.3465 38.4618 40.149 32.2782 40.149H14.3871C8.20354 40.149 3.17423 35.3465 3.17423 29.4417V14.4042C3.17423 8.49944 8.20354 3.69688 14.3871 3.69688H32.2782Z" fill="white"/>
<path fill-rule="evenodd" clip-rule="evenodd" d="M23.3321 34.1698C30.3813 34.1698 36.1527 28.6981 36.1527 21.9272C36.1527 15.1564 30.4226 9.68457 23.3321 9.68457C16.2416 9.68457 10.5115 15.1958 10.5115 21.9272C10.5115 28.6587 16.2416 34.1698 23.3321 34.1698ZM23.3321 12.7551C28.6499 12.7551 32.9372 16.8885 32.9372 21.9272C32.9372 26.966 28.6087 31.0993 23.3321 31.0993C18.0554 31.0993 13.7269 26.966 13.7269 21.9272C13.7269 16.8885 18.0554 12.7551 23.3321 12.7551Z" fill="white"/>
<path fill-rule="evenodd" clip-rule="evenodd" d="M8.07935 10.0763C8.07935 11.4934 9.27484 12.5956 10.7589 12.5956C12.2429 12.5956 13.4384 11.4541 13.4384 10.0763C13.4384 8.69851 12.2429 7.51758 10.7589 7.51758C9.27484 7.51758 8.07935 8.65915 8.07935 10.0763Z" fill="white"/>
</svg>
