<svg width="10" height="14" viewBox="0 0 10 14" fill="none" xmlns="http://www.w3.org/2000/svg">
<mask id="mask0_240_1161" style="mask-type:luminance" maskUnits="userSpaceOnUse" x="0" y="0" width="10" height="14">
<path d="M3.17882 13.8031C3.09509 13.8031 3.01137 13.791 2.93121 13.7623C2.63016 13.6626 2.45381 13.3935 2.51259 13.1229L3.61703 8.03322H0.677791C0.424838 8.03322 0.193262 7.9138 0.0774734 7.72484C-0.0400962 7.53589 -0.022283 7.30612 0.120226 7.13077L5.74932 0.246777C5.93102 0.0245659 6.27126 -0.0585741 6.56162 0.0427055C6.85554 0.143985 7.02655 0.405499 6.97489 0.670035L6.08065 5.17622H8.80969C9.0573 5.17622 9.28532 5.29111 9.40467 5.47553C9.52402 5.65995 9.51511 5.88367 9.38151 6.06204L3.75063 13.5386C3.62238 13.7064 3.40327 13.8031 3.17882 13.8031Z" fill="white"/>
</mask>
<g mask="url(#mask0_240_1161)">
<path d="M9.52249 -0.0583496H-0.041626V13.8034H9.52249V-0.0583496Z" fill="url(#paint0_linear_240_1161)"/>
</g>
<defs>
<linearGradient id="paint0_linear_240_1161" x1="9.59984" y1="10.4961" x2="1.31712" y2="1.91863" gradientUnits="userSpaceOnUse">
<stop stop-color="#EF2B3B"/>
<stop offset="1" stop-color="#7A030A"/>
</linearGradient>
</defs>
</svg>
