<svg width="53" height="47" viewBox="0 0 53 47" fill="none" xmlns="http://www.w3.org/2000/svg">
<path d="M11.8178 13.5391H1.05835V46.0154H11.8178V13.5391Z" fill="white"/>
<path d="M19.4436 12.5941H30.945L30.2442 16.9637H30.3679C32.8001 14.4443 35.1911 12.5941 39.3135 12.5941C45.0436 12.5941 52.9998 15.5858 52.9998 24.6004V45.9759H42.2404V27.6317C42.2404 24.4037 40.0967 21.2938 36.6339 21.2938C33.4185 21.2938 30.2442 24.4037 30.2442 27.6317V45.9759H19.4848V12.5547L19.4436 12.5941Z" fill="white"/>
<path d="M12.2304 5.51123C12.2304 8.58172 9.63331 11.0223 6.45908 11.0223C3.28485 11.0223 0.687744 8.54236 0.687744 5.51123C0.687744 2.48011 3.28485 0 6.45908 0C9.63331 0 12.2304 2.48011 12.2304 5.51123Z" fill="white"/>
</svg>
