<svg width="173" height="85" viewBox="0 0 173 85" fill="none" xmlns="http://www.w3.org/2000/svg">
<g clip-path="url(#clip0_174_7546)">
<path d="M171.471 0.743629C170.799 0.247876 170.002 0 169.204 0C168.331 0 167.464 0.296374 166.759 0.883733C166.683 0.948396 159.179 7.11297 149.532 7.11297C148.735 7.11297 147.938 7.06986 147.157 6.98903C146.333 6.90282 145.52 6.85432 144.728 6.85432C138.785 6.85432 134.529 9.43546 132.078 12.2753C129.551 10.6048 126.525 9.62407 123.266 9.62407C114.482 9.62407 107.341 16.7263 107.341 25.4504C107.341 31.1354 110.372 36.1253 114.916 38.9166C114.141 39.4985 113.582 40.2637 113.251 40.9912C111.63 39.4447 108.93 37.9305 104.559 37.9305C104.212 37.9305 103.854 37.9412 103.48 37.9574C100.156 38.1352 97.2608 38.313 94.9346 38.4532C91.3667 38.6741 88.791 38.8304 87.2457 38.8304C86.9637 38.8304 86.7197 38.8304 86.5137 38.8142C86.3944 38.8034 86.2697 38.798 86.1449 38.798C85.2828 38.798 84.4749 39.0351 83.7862 39.45C83.0705 38.7388 81.8233 37.9412 79.7954 37.9412H73.2615C73.1476 37.9305 73.0283 37.9251 72.8982 37.9251C70.8594 37.9251 68.2837 39.3153 67.7523 43.2275C67.5734 44.5423 66.8902 49.9417 66.3154 54.5166C66.8739 49.8824 67.5409 44.4399 67.6276 43.7017C67.8283 42.3868 67.4433 40.9912 66.5703 39.935C65.822 39.0243 64.3742 37.9358 61.7444 37.9358C61.7444 37.9358 55.6497 37.9358 55.6117 37.9358C53.8982 37.9358 52.0221 38.9058 51.0298 41.0127C49.3814 39.4393 46.7082 37.9035 42.5167 37.9035C42.0504 37.9035 41.5678 37.9251 41.0798 37.9628C37.783 38.2214 34.8387 38.7657 32.1329 39.6117C30.5767 38.6741 28.4132 37.9251 25.4418 37.9251C25.1002 37.9251 24.7531 37.9358 24.3898 37.952C21.1906 38.1298 18.4036 38.3077 16.1641 38.4478C12.7372 38.6687 10.2592 38.825 8.77889 38.825C8.51862 38.825 8.29088 38.825 8.09568 38.8088C7.97096 38.798 7.84625 38.7926 7.72153 38.7926C5.67189 38.7926 3.43788 40.2637 3.12338 43.0766C1.963 53.6113 0.558614 65.5202 0.211584 67.293C-0.135446 68.4354 -0.130024 70.1274 0.911067 71.5554C0.927334 71.5824 0.954445 71.6093 0.976135 71.6362C0.498968 72.8002 0.623682 74.1312 1.34485 75.182L2.62995 77.0626L1.12254 78.5444C0.0326464 79.6222 -0.298117 81.2441 0.287497 82.656C0.87311 84.0678 2.26123 84.9892 3.79576 84.9892H72.9361C73.2886 84.9892 73.6356 84.9353 73.9718 84.8383C74.308 84.9353 74.6658 84.9892 75.0237 84.9892H77.4692C77.7891 84.9892 78.1036 84.9461 78.4127 84.8707C78.7109 84.9461 79.0254 84.9892 79.3453 84.9892H81.7908C82.089 84.9892 82.3873 84.9515 82.6692 84.8868C82.9458 84.9515 83.2223 84.9892 83.5151 84.9892H87.9072C89.0947 84.9892 90.2117 84.4342 90.9329 83.4966L91.1986 83.1463C91.2745 83.2595 91.3558 83.3672 91.448 83.4696C92.1692 84.3103 93.2265 84.7952 94.3381 84.7952H96.1221C96.5179 84.7952 96.9083 84.736 97.2716 84.6174C97.6403 84.7306 98.0253 84.7952 98.4157 84.7952H100.037C100.633 84.7952 101.197 84.6444 101.702 84.3965C102.173 84.5635 102.71 84.6982 103.318 84.7683C103.637 84.806 103.952 84.8276 104.261 84.8276C105.139 84.8276 105.931 84.6713 106.636 84.4073C106.777 84.4719 106.923 84.5366 107.07 84.5851C107.471 84.7252 107.894 84.7952 108.317 84.7952H110.865C111.337 84.7952 111.798 84.709 112.216 84.5474C112.796 84.709 113.409 84.8006 114.043 84.8006C114.075 84.8006 114.108 84.8006 114.141 84.8006C114.249 84.806 114.368 84.8114 114.498 84.8114C115.99 84.8114 117.698 84.251 119.015 82.8877C120.306 84.3749 122.035 84.7198 122.561 84.7899C122.686 84.806 122.811 84.8168 122.941 84.8222C122.941 84.8222 124.134 84.8653 124.969 84.8653C125.587 84.8653 126.319 84.8653 127.067 84.5743C127.577 84.7413 128.114 84.8437 128.678 84.8653C129.35 84.8922 129.898 84.903 130.326 84.903C131.21 84.903 131.682 84.8653 131.807 84.8545C131.991 84.8383 132.17 84.8006 132.349 84.7629C132.56 84.8006 132.777 84.8222 132.999 84.8222H134.594C134.886 84.8222 135.179 84.7898 135.456 84.7252C135.732 84.7898 136.025 84.8222 136.312 84.8222H138.031C138.357 84.8222 138.671 84.7683 138.975 84.6875C139.279 84.7629 139.588 84.8168 139.908 84.8168H142.456C142.857 84.8168 143.242 84.7521 143.606 84.639C144.056 84.7683 144.527 84.8491 145.021 84.8707C145.693 84.8976 146.241 84.9084 146.669 84.9084C147.553 84.9084 148.025 84.8707 148.149 84.8599C148.399 84.8383 148.637 84.7845 148.871 84.7198C149.044 84.7467 149.218 84.7629 149.397 84.7629H151.094C152.889 84.7629 154.439 83.5127 154.808 81.7668C154.819 81.713 155.003 80.84 155.188 79.87C155.307 79.7784 155.415 79.6814 155.524 79.5737C155.811 79.2881 156.581 78.5229 157.091 76.3243C157.351 75.2035 157.08 74.0288 156.359 73.1289C156.229 72.9672 156.082 72.8217 155.936 72.687C157.313 71.7602 158.116 70.2568 158.246 68.7964C158.3 68.3169 158.696 64.7065 158.815 63.5803C158.962 62.1684 158.544 60.8375 157.633 59.8352C156.272 58.3318 154.423 58.2132 153.892 58.2132H152.319C155.47 55.0878 158.598 51.9786 158.983 51.5583C160.171 50.2704 160.534 49.0579 160.605 48.1688C160.718 47.4036 161.06 45.0273 161.125 43.3191C161.185 41.6109 160.729 40.2422 159.764 39.2507C158.94 38.4047 157.834 37.9358 156.652 37.9358C156.5 37.9358 156.353 37.9412 156.218 37.9574H143.399C146.528 37.7203 152.39 36.6049 156.131 31.7874C156.809 30.9091 157.086 29.799 156.917 28.7536C159.005 27.2341 161.12 24.9978 163.365 21.937C164.075 20.9671 164.254 19.7762 163.95 18.7039C167.795 15.4492 170.49 10.3192 172.696 5.2539C173.396 3.64809 172.886 1.77824 171.476 0.732852L171.471 0.743629Z" fill="white"/>
<path d="M123.261 13.4014C116.559 13.4014 111.131 18.8008 111.131 25.4557C111.131 32.1106 116.564 37.51 123.261 37.51C129.958 37.51 135.391 32.1106 135.391 25.4557C135.391 18.8008 129.958 13.4014 123.261 13.4014ZM131.335 25.4557C131.335 26.4364 131.15 27.374 130.825 28.2416L128.347 26.9537C128.488 26.4795 128.569 25.9784 128.569 25.4557C128.569 22.9877 126.861 20.9239 124.557 20.3527V17.5506C128.401 18.1649 131.34 21.4681 131.34 25.4611L131.335 25.4557ZM124.074 25.5527C124.074 25.9999 123.711 26.361 123.261 26.361C122.811 26.361 122.448 25.9999 122.448 25.5527C122.448 25.1054 122.811 24.7444 123.261 24.7444C123.711 24.7444 124.074 25.1054 124.074 25.5527ZM121.688 17.5937V20.4281C119.53 21.0963 117.963 23.0955 117.963 25.4611C117.963 25.9353 118.034 26.3933 118.148 26.8298L115.653 28.1231C115.361 27.2878 115.187 26.3987 115.187 25.4611C115.187 21.5651 117.98 18.3212 121.683 17.5937H121.688ZM123.266 33.4793C120.777 33.4793 118.554 32.3585 117.074 30.5964L119.623 29.2762C120.571 30.1707 121.857 30.7258 123.266 30.7258C124.676 30.7258 125.869 30.2085 126.807 29.3678L129.366 30.6988C127.886 32.3962 125.706 33.4793 123.266 33.4793Z" fill="#D11F2A"/>
<path d="M146.745 10.7395C137.565 9.75874 134.236 15.5784 133.856 16.3167C134.333 16.8609 134.767 17.4483 135.158 18.0626C136.052 17.7123 143.183 15.0935 150.628 17.6261C159.672 20.703 164.747 14.0211 169.21 3.7666C169.21 3.7666 159.368 12.0866 146.751 10.7395H146.745Z" fill="#D11F2A"/>
<path d="M148.025 19.9594C148.025 19.9594 141.057 17.5992 136.28 20.2396C136.876 21.7053 137.218 23.2896 137.278 24.9547C138.85 24.8307 141.767 24.8846 145.352 26.2641C149.353 27.8052 153.111 29.4919 160.285 19.7223C160.16 19.884 158.013 22.422 148.019 19.9594H148.025Z" fill="#D11F2A"/>
<path d="M143.427 29.1146C140.26 28.177 138.172 28.0692 137.045 28.1285C136.497 30.9413 135.098 33.4471 133.13 35.387C134.811 34.7242 137.619 33.8404 140.032 34.1476C143.757 34.6218 149.879 33.6734 153.122 29.4972C153.122 29.4972 149.63 30.9575 143.432 29.12L143.427 29.1146Z" fill="#D11F2A"/>
<path d="M85.2881 43.5074C85.2881 43.5074 82.5118 67.6161 82.1106 68.3759C82.1106 68.3759 81.6172 69.8308 83.6993 69.8308H90.7104C90.7104 69.8308 91.6485 70.0841 91.9793 67.7454C92.31 65.4068 94.2729 49.7097 94.2729 49.7097C94.2729 49.7097 97.9167 48.632 99.3049 48.7613C100.693 48.8907 103.008 48.7613 102.743 51.0407C102.477 53.3201 100.514 68.3813 100.514 68.3813C100.514 68.3813 99.9338 69.8362 102.45 69.8362H108.772C108.772 69.8362 110.025 69.9709 110.296 68.0041C110.643 65.4499 112.546 49.6505 112.611 49.3379C112.676 49.02 113.273 41.2334 103.681 41.7454C94.0886 42.2519 88.5307 42.7476 86.2153 42.5968C86.2153 42.5968 85.4074 42.4836 85.2881 43.5182V43.5074Z" fill="black"/>
<path d="M78.2661 68.0527C78.2661 68.0527 80.9393 43.944 81.3243 43.1842C81.3243 43.1842 81.796 41.7293 79.7952 41.7293H73.0444C73.0444 41.7293 71.8352 41.4114 71.5153 43.7554C71.1953 46.0995 69.2216 61.8558 69.2216 61.8558C69.2216 61.8558 65.9085 63.3107 64.5746 63.1868C63.2353 63.0575 61.5164 62.8688 61.7713 60.5895C62.0261 58.3101 63.8752 43.1842 63.8752 43.1842C63.8752 43.1842 64.1734 41.7293 61.7496 41.7293H55.6603C55.6603 41.7293 54.5162 41.6 54.1963 43.5614C53.8764 45.5229 52.0328 61.9151 51.9677 62.2276C51.9026 62.5455 51.3333 70.3321 60.5621 69.8202C69.7964 69.3136 75.1428 68.8179 77.3714 68.9688C77.3714 68.9688 78.1468 69.0819 78.2607 68.0473L78.2661 68.0527Z" fill="black"/>
<path d="M41.3778 41.735C36.8719 42.0853 33.7323 42.969 31.4332 43.8743C30.1915 42.5433 28.0985 41.541 24.6011 41.735C15.3668 42.2416 10.0204 42.7373 7.79181 42.5864C7.79181 42.5864 7.01641 42.4733 6.90254 43.5079C6.90254 43.5079 4.22933 67.6165 3.84434 68.3763C3.84434 68.3763 3.37259 69.8313 5.37344 69.8313H12.1243C12.1243 69.8313 13.3334 70.1492 13.6534 67.8051C13.9733 65.4665 15.947 49.7048 15.947 49.7048C15.947 49.7048 19.2601 48.2499 20.594 48.3738C21.9333 48.5031 23.6522 48.6917 23.3973 50.9711C23.1425 53.2505 21.2935 68.3763 21.2935 68.3763C21.2935 68.3763 21.2609 68.5434 21.3097 68.7643C21.3206 69.1954 21.5591 69.8313 22.8876 69.8313H29.5083C29.5083 69.8313 29.5408 69.8313 29.5896 69.8313H29.633C29.633 69.8313 30.8422 70.1492 31.1621 67.8051C31.3411 66.4742 31.9538 60.579 32.4472 55.7293C32.8431 52.2967 33.1738 49.4569 33.1955 49.3276C33.2009 49.2899 33.2172 49.1498 33.2226 48.9288C33.7649 48.8265 36.8827 48.2606 38.0973 48.3738C39.4366 48.5031 41.1555 48.6917 40.9007 50.9711C40.6458 53.2505 38.7968 68.3763 38.7968 68.3763C38.7968 68.3763 38.4986 69.8313 40.9224 69.8313H47.0117C47.0117 69.8313 48.1558 69.9606 48.4757 67.9991C48.7956 66.0377 50.6392 49.6455 50.7043 49.333C50.7693 49.0151 50.5904 41.0184 41.3724 41.7404L41.3778 41.735Z" fill="black"/>
<path d="M117.768 41.7349H125.218C125.218 41.7349 126.303 41.3577 125.983 43.5078C125.663 45.6578 122.545 68.4409 122.545 68.4409C122.545 68.4409 122.583 69.8312 121.206 69.8312H113.918C113.918 69.8312 113.246 69.3893 113.376 68.5056C113.506 67.6218 116.689 42.5863 116.689 42.5863C116.689 42.5863 117.041 41.7349 117.773 41.7349H117.768Z" fill="black"/>
<path d="M132.164 41.7347H156.489C156.489 41.7347 157.378 41.4222 157.319 43.1896C157.253 44.9625 156.809 47.8077 156.809 47.8077C156.809 47.8077 156.874 48.2495 156.169 49.0093C155.47 49.7691 143.117 61.9851 143.117 61.9851H153.875C153.875 61.9851 155.15 61.9851 155.019 63.1868C154.895 64.3884 154.445 68.4407 154.445 68.4407C154.445 68.4407 154.353 69.8309 152.791 69.8309H128.591C128.591 69.8309 127.637 69.7663 127.702 68.694C127.767 67.6162 128.146 64.3292 128.146 64.3292C128.146 64.3292 128.271 63.634 128.721 63.1275C129.166 62.621 142.51 49.8985 142.51 49.8985V49.5213L131.015 49.4566C131.015 49.4566 130.25 49.3919 130.44 48.4435C130.63 47.4951 131.139 42.5861 131.139 42.5861C131.139 42.5861 131.237 41.7347 132.159 41.7347H132.164Z" fill="black"/>
<path d="M102.358 75.5322H104.077L103.377 79.3312C103.377 79.3312 103.312 79.994 104.077 79.994H104.586C104.586 79.994 104.809 80.0263 104.998 79.2019C105.188 78.3828 105.796 75.5322 105.796 75.5322H107.39L106.625 79.5198C106.625 79.5198 106.181 81.3196 103.762 81.0394C101.344 80.7538 101.756 78.8247 101.756 78.8247L102.363 75.5322H102.358Z" fill="black"/>
<path d="M138.026 81.0553H136.307L137.006 77.2564C137.006 77.2564 137.072 76.5936 136.307 76.5936H135.797C135.797 76.5936 135.575 76.5612 135.385 77.3857C135.195 78.2048 134.588 81.0553 134.588 81.0553H132.994L133.758 77.0678C133.758 77.0678 134.203 75.268 136.627 75.5482C139.045 75.8338 138.633 77.7629 138.633 77.7629L138.026 81.0553Z" fill="black"/>
<path d="M108.729 74.6108L110.545 74.3252L110.323 75.5269H111.977C111.977 75.5269 111.755 76.5399 111.467 76.8255H110.068L109.494 79.6761C109.494 79.6761 109.336 80.0264 109.781 80.0533C110.226 80.0856 111.023 80.0533 111.023 80.0533L110.865 81.034H108.317C108.317 81.034 107.585 80.7808 107.742 79.9294C107.899 79.0726 108.729 74.6108 108.729 74.6108Z" fill="black"/>
<path d="M140.314 74.6323L142.131 74.3467L141.908 75.5483H143.562C143.562 75.5483 143.34 76.5614 143.052 76.847H141.653L141.079 79.6976C141.079 79.6976 140.921 80.0478 141.366 80.0748C141.811 80.1071 142.608 80.0748 142.608 80.0748L142.451 81.0555H139.902C139.902 81.0555 139.17 80.8022 139.327 79.9508C139.485 79.094 140.314 74.6377 140.314 74.6377V74.6323Z" fill="black"/>
<path d="M127.154 74.0127C127.154 74.0127 127.442 74.0127 127.322 74.5354C127.203 75.0581 127.203 75.5323 126.986 75.5323H124.812C124.812 75.5323 124.139 75.4784 123.733 76.7124C123.326 77.9464 123.022 79.73 124.096 79.827C125.17 79.924 125.837 79.827 125.837 79.827C125.837 79.827 126.167 79.66 126.037 80.1126C125.907 80.5653 125.809 80.9802 125.69 81.0664C125.571 81.1526 123.066 81.0664 123.066 81.0664C123.066 81.0664 121.271 80.8239 121.537 79.0403C121.797 77.262 122.063 74.0073 124.264 74.0073H127.154V74.0127Z" fill="black"/>
<path d="M130.619 75.5322C127.995 75.5322 127.301 77.7416 127.154 78.4529C127.013 79.1642 126.986 81.034 128.824 81.1094C130.662 81.1795 131.449 81.1094 131.449 81.1094C131.449 81.1094 132.143 80.1125 131.828 80.0425C131.519 79.9724 129.366 80.1125 129.177 80.0209C128.987 79.9239 128.439 78.8839 128.987 78.8839H131.975C131.975 78.8839 132.311 78.8139 132.381 78.6253C132.452 78.4367 133.243 75.5376 130.614 75.5376L130.619 75.5322ZM130.787 77.9517H129.047C129.713 76.4321 130.505 76.7393 130.787 77.0033C131.074 77.262 130.787 77.9517 130.787 77.9517Z" fill="black"/>
<path d="M146.951 75.5322C144.327 75.5322 143.633 77.7416 143.486 78.4529C143.34 79.1642 143.318 81.034 145.156 81.1094C146.994 81.1795 147.781 81.1094 147.781 81.1094C147.781 81.1094 148.475 80.1125 148.16 80.0425C147.851 79.9724 145.698 80.1125 145.509 80.0209C145.319 79.9239 144.771 78.8839 145.319 78.8839H148.307C148.307 78.8839 148.643 78.8139 148.713 78.6253C148.784 78.4367 149.575 75.5376 146.946 75.5376L146.951 75.5322ZM147.119 77.9517H145.379C146.045 76.4321 146.837 76.7393 147.119 77.0033C147.407 77.262 147.119 77.9517 147.119 77.9517Z" fill="black"/>
<path d="M99.1096 74.0127H97.0708C97.0708 74.0127 95.6393 74.1043 95.3194 75.5323C94.9995 76.9549 94.3325 81.0394 94.3325 81.0394H96.1165L96.5611 78.6954H98.6921L98.4047 81.0394H100.026L101.045 75.5323C101.045 75.5323 101.246 74.0127 99.1042 74.0127H99.1096ZM99.2343 75.8179L99.0445 77.359L96.8702 77.4075C96.8702 77.4075 97.06 75.9849 97.0383 75.9364C97.0166 75.8879 96.8485 75.4838 98.1607 75.4838C99.4729 75.4838 99.2343 75.8179 99.2343 75.8179Z" fill="black"/>
<path d="M115.095 75.5321C115.095 75.5321 112.611 75.2788 111.977 78.3018C111.342 81.3248 114.238 81.0392 114.238 81.0392C114.238 81.0392 116.786 81.4811 117.296 77.8438C117.296 77.8438 117.811 75.5321 115.1 75.5321H115.095ZM114.319 80.0262C113.425 79.8861 113.473 79.0562 113.761 77.9462C114.048 76.8361 114.883 76.8846 114.883 76.8846C115.431 76.9062 115.767 77.2133 115.789 77.6821C115.81 78.1456 115.214 80.1717 114.319 80.0262Z" fill="black"/>
<path d="M149.386 80.9911L150.15 76.4808C150.15 76.4808 150.438 75.5593 151.273 75.5216C152.108 75.4839 153.377 75.4839 153.377 75.4839C153.377 75.4839 153.116 76.6209 152.829 76.9065L151.967 76.928C151.967 76.928 151.847 76.7125 151.658 77.9465C151.468 79.1805 151.083 80.9857 151.083 80.9857H149.386V80.9911Z" fill="black"/>
<path d="M4.48429 73.0645L7.53707 77.537L3.79565 81.2282H72.936L75.7394 77.537L72.4263 73.0645H4.48429Z" fill="#D11F2A"/>
<path d="M74.6711 73.0645H77.0895L80.2778 77.537L77.4745 81.2282H75.029L77.7944 77.4939L74.6711 73.0645Z" fill="#D11F2A"/>
<path d="M78.9873 73.0645H81.4057L84.594 77.537L81.7907 81.2282H79.3452L82.1106 77.4939L78.9873 73.0645Z" fill="#D11F2A"/>
<path d="M83.1409 73.0645H87.533L90.7213 77.537L87.9017 81.2282H83.515L86.3129 77.537L83.1409 73.0645Z" fill="#D11F2A"/>
</g>
<defs>
<clipPath id="clip0_174_7546">
<rect width="173" height="85" fill="white"/>
</clipPath>
</defs>
</svg>
