<svg width="15" height="22" viewBox="0 0 15 22" fill="none" xmlns="http://www.w3.org/2000/svg">
<path d="M14.5542 7.46256C14.5542 11.3914 7.41767 21.7583 7.41767 21.7583C7.41767 21.7583 0.281128 11.3914 0.281128 7.46256C0.281128 3.53373 3.47635 0.348633 7.41767 0.348633C11.359 0.348633 14.5542 3.53373 14.5542 7.46256Z" fill="#EDC10F"/>
<path d="M9.78965 9.51339C11.0997 8.20753 11.0997 6.09032 9.78965 4.78446C8.47964 3.47861 6.3557 3.47861 5.04569 4.78446C3.73568 6.09032 3.73568 8.20753 5.04569 9.51339C6.3557 10.8192 8.47964 10.8192 9.78965 9.51339Z" fill="white"/>
<path d="M1.50433 8.0876C1.50433 4.67457 4.27991 1.90779 7.70379 1.90779C9.70518 1.90779 11.4845 2.85344 12.6182 4.32049C11.5476 2.46806 9.54129 1.2207 7.24251 1.2207C3.81831 1.2207 1.04272 3.98749 1.04272 7.40051C1.04272 8.81849 1.52217 10.1248 2.32808 11.1676C1.80403 10.2608 1.50433 9.20913 1.50433 8.0876Z" fill="#EBD169"/>
<path d="M5.73483 19.0374C6.70727 20.6616 7.41769 21.7584 7.41769 21.7584C7.41769 21.7584 14.5542 11.3916 14.5542 7.46273C14.5542 7.25654 14.5433 7.05265 14.5262 6.85107C14.2446 7.94264 13.8465 9.00521 13.3574 10.0197C12.0066 12.8227 10.0089 14.6185 7.88128 16.8925C7.19531 17.6254 6.48126 18.3504 5.7345 19.0378L5.73483 19.0374Z" fill="#FFCC00"/>
</svg>
