<svg width="15" height="15" viewBox="0 0 15 15" fill="none" xmlns="http://www.w3.org/2000/svg">
<path d="M11.1246 8.91137L11.1194 8.95489C9.84316 8.31883 9.70968 8.2341 9.54486 8.48133C9.43053 8.65253 9.0974 9.04078 8.997 9.15569C8.89544 9.26886 8.79446 9.27756 8.62209 9.19922C8.44798 9.11217 7.8891 8.92936 7.22749 8.3374C6.71214 7.87603 6.36624 7.31019 6.2641 7.13608C6.09406 6.84243 6.44981 6.80064 6.77365 6.1878C6.83169 6.06593 6.80209 5.97017 6.75914 5.8837C6.71562 5.79664 6.36914 4.94353 6.22406 4.60345C6.08477 4.26453 5.94142 4.30748 5.83406 4.30748C5.49977 4.27846 5.25544 4.2831 5.04013 4.50711C4.10343 5.53665 4.33964 6.59868 5.14111 7.72804C6.7162 9.78943 7.55539 10.169 9.08986 10.6959C9.50423 10.8277 9.88205 10.8091 10.1809 10.7662C10.5141 10.7133 11.2064 10.3477 11.3509 9.93858C11.4989 9.52943 11.4989 9.18993 11.4554 9.11159C11.4124 9.03324 11.2987 8.98971 11.1246 8.91137Z" fill="white"/>
<path d="M12.8732 2.60929C8.4108 -1.70443 1.02575 1.42422 1.02285 7.50974C1.02285 8.72614 1.34147 9.91237 1.94852 10.9599L0.964233 14.536L4.6408 13.5773C9.22852 16.0553 14.8905 12.7648 14.8928 7.51322C14.8928 5.67004 14.1732 3.93538 12.8645 2.63192L12.8732 2.60929ZM13.7333 7.49407C13.7298 11.9239 8.86696 14.6904 5.02093 12.4293L4.812 12.3051L2.63566 12.871L3.21892 10.7556L3.08022 10.538C0.686823 6.72801 3.43655 1.74863 7.9703 1.74863C8.72742 1.74673 9.47739 1.89501 10.1768 2.1849C10.8762 2.47478 11.5112 2.90051 12.045 3.43744C12.5817 3.96763 13.0074 4.59942 13.2972 5.29591C13.5871 5.99241 13.7353 6.73967 13.7333 7.49407Z" fill="white"/>
</svg>
